<svg width="178" height="61" viewBox="0 0 178 61" fill="none" xmlns="http://www.w3.org/2000/svg">
<path d="M72.2782 38.553C71.1469 38.0458 70.3298 37.2848 69.7013 36.3337C69.0727 35.3826 68.7585 34.3046 68.6956 33.0364H71.6497C71.7126 34.1144 72.2154 35.0021 72.9696 35.6996C73.7239 36.3971 74.8552 36.7142 76.1123 36.7142C77.2436 36.7142 78.1236 36.4605 78.815 36.0166C79.5063 35.5094 79.8835 34.8753 79.8835 33.9875C79.8835 33.3534 79.6949 32.8462 79.3178 32.4657C78.9407 32.0853 78.4378 31.8316 77.8093 31.6414C77.1808 31.4512 76.238 31.2609 75.0438 31.0073H74.9181C73.7867 30.8171 72.7811 30.5634 71.964 30.183C71.1469 29.8025 70.4555 29.2952 69.8898 28.5977C69.387 27.9002 69.1356 26.9491 69.1356 25.8077C69.1356 24.7297 69.387 23.7786 69.9527 22.9543C70.5184 22.13 71.2726 21.4959 72.2782 20.9886C73.2839 20.5447 74.4152 20.2911 75.6723 20.2911C76.9922 20.2911 78.1864 20.5447 79.1921 21.052C80.2606 21.5593 81.0777 22.1934 81.6433 23.0811C82.2719 23.9688 82.5861 24.9834 82.5861 26.0613H79.632C79.5063 25.1102 79.0664 24.3493 78.375 23.7786C77.6836 23.2079 76.7408 22.8909 75.6723 22.8909C74.6038 22.8909 73.7239 23.1445 73.0953 23.5884C72.4668 24.0322 72.1525 24.7297 72.1525 25.5541C72.1525 26.1882 72.3411 26.632 72.7182 27.0125C73.0953 27.3295 73.5982 27.6466 74.2267 27.8368C74.8552 28.027 75.7352 28.2173 76.9294 28.4709C78.1236 28.6611 79.1292 28.9782 80.0092 29.2952C80.8891 29.6123 81.5805 30.183 82.1462 30.8805C82.7119 31.578 82.9633 32.5291 82.9633 33.6705C82.9633 34.7485 82.649 35.6996 82.0833 36.5873C81.5176 37.4751 80.7006 38.1092 79.632 38.6164C78.5635 39.1237 77.4322 39.3139 76.1123 39.3139C74.6667 39.3774 73.3467 39.1237 72.2782 38.553Z" fill="#E60000"/>
<path d="M95.8482 26.2516C96.791 26.8222 97.5452 27.5832 98.1109 28.6611C98.6766 29.7391 98.928 30.9439 98.928 32.4023C98.928 33.7973 98.6766 35.0021 98.1109 36.0166C97.5452 37.0946 96.791 37.9189 95.8482 38.4896C94.9054 39.0603 93.774 39.3773 92.5798 39.3773C91.3856 39.3773 90.3799 39.1237 89.5629 38.6164C88.7458 38.1092 88.1801 37.4116 87.7401 36.5873L88.1172 35.9532V44.5769H85.2888V25.6175H87.7401L88.3058 28.9782L87.6773 28.3441C88.1801 27.5198 88.8086 26.8222 89.5629 26.2516C90.3799 25.7443 91.3227 25.4906 92.5169 25.4906C93.774 25.4272 94.8425 25.7443 95.8482 26.2516ZM90.0028 28.4075C89.3743 28.7879 88.9343 29.2952 88.6201 29.9927C88.3058 30.6902 88.1172 31.4511 88.1172 32.3389C88.1172 33.2266 88.3058 34.0509 88.6201 34.7484C88.9343 35.4459 89.4371 35.9532 90.0028 36.3971C90.6314 36.7775 91.2599 36.9678 92.077 36.9678C92.8312 36.9678 93.5226 36.7775 94.1511 36.3971C94.7797 36.0166 95.2196 35.4459 95.5339 34.8119C95.8482 34.1143 96.0367 33.3534 96.0367 32.4657C96.0367 31.578 95.8482 30.817 95.5339 30.1195C95.2196 29.422 94.7797 28.9148 94.1511 28.5343C93.5226 28.1538 92.8312 27.9636 92.077 27.9636C91.2599 27.8368 90.5685 28.027 90.0028 28.4075Z" fill="#E60000"/>
<path d="M104.019 38.4896C102.951 37.9189 102.133 37.0946 101.568 36.0166C101.002 34.9387 100.688 33.7339 100.688 32.4023C100.688 31.0073 101.002 29.8025 101.568 28.7245C102.133 27.6466 102.951 26.8857 104.019 26.315C105.088 25.7443 106.282 25.4272 107.602 25.4272C108.984 25.4272 110.179 25.7443 111.184 26.315C112.253 26.8857 113.07 27.71 113.636 28.7245C114.201 29.8025 114.516 31.0073 114.516 32.4023C114.516 33.7973 114.201 35.0021 113.636 36.0801C113.07 37.158 112.253 37.9189 111.184 38.553C110.116 39.1237 108.922 39.4408 107.602 39.4408C106.219 39.3773 105.025 39.0603 104.019 38.4896ZM109.676 36.3337C110.304 35.9532 110.744 35.446 111.059 34.7485C111.373 34.0509 111.561 33.29 111.561 32.4023C111.561 31.5146 111.373 30.7537 111.059 30.0561C110.744 29.3586 110.304 28.8514 109.676 28.4709C109.047 28.0904 108.356 27.9002 107.602 27.9002C106.847 27.9002 106.093 28.0904 105.528 28.4709C104.899 28.8514 104.459 29.3586 104.145 30.0561C103.831 30.7537 103.642 31.5146 103.642 32.4023C103.642 33.29 103.831 34.0509 104.145 34.7485C104.459 35.446 104.962 35.9532 105.528 36.3337C106.156 36.7141 106.847 36.9044 107.602 36.9044C108.356 36.9044 109.11 36.7141 109.676 36.3337Z" fill="#E60000"/>
<path d="M119.292 25.6175L119.795 28.9782L119.23 28.3441C119.607 27.5198 120.172 26.8223 120.801 26.3784C121.429 25.8711 122.372 25.6809 123.566 25.6809H124.195V28.3441H122.938C121.744 28.3441 120.927 28.7246 120.361 29.4855C119.858 30.2464 119.544 31.2609 119.544 32.4657V39.314H116.715V25.6175H119.292Z" fill="#E60000"/>
<path d="M126.081 21.7495H128.909V25.5541H132.177V28.0271H128.909V35.1289C128.909 35.6996 129.035 36.0801 129.223 36.2703C129.412 36.5239 129.789 36.5874 130.292 36.5874H132.492V39.1237H129.726C128.469 39.1237 127.526 38.8067 126.96 38.236C126.395 37.6653 126.081 36.7142 126.081 35.446V21.7495Z" fill="#E60000"/>
<path d="M137.206 38.553C136.074 38.0458 135.257 37.2848 134.629 36.3337C134 35.3826 133.686 34.3046 133.623 33.0364H136.577C136.64 34.1144 137.143 35.0021 137.897 35.6996C138.651 36.3971 139.782 36.7142 141.04 36.7142C142.171 36.7142 143.051 36.4605 143.742 36.0166C144.434 35.5094 144.811 34.8753 144.811 33.9875C144.811 33.3534 144.622 32.8462 144.245 32.4657C143.868 32.0853 143.365 31.8316 142.737 31.6414C142.108 31.4512 141.165 31.2609 139.971 31.0073H139.845C138.714 30.8171 137.708 30.5634 136.891 30.183C136.074 29.8025 135.383 29.2952 134.817 28.5977C134.314 27.9002 134.063 26.9491 134.063 25.8077C134.063 24.7297 134.314 23.7786 134.88 22.9543C135.446 22.13 136.2 21.4959 137.206 20.9886C138.211 20.5447 139.343 20.2911 140.6 20.2911C141.919 20.2911 143.114 20.5447 144.119 21.052C145.188 21.5593 146.005 22.1934 146.571 23.0811C147.199 23.9688 147.513 24.9834 147.513 26.0613H144.559C144.434 25.1102 143.994 24.3493 143.302 23.7786C142.611 23.2079 141.668 22.8909 140.6 22.8909C139.531 22.8909 138.651 23.1445 138.023 23.5884C137.394 24.0322 137.08 24.7297 137.08 25.5541C137.08 26.1882 137.268 26.632 137.645 27.0125C138.023 27.3295 138.525 27.6466 139.154 27.8368C139.782 28.027 140.662 28.2173 141.857 28.4709C143.051 28.6611 144.056 28.9782 144.936 29.2952C145.816 29.6123 146.508 30.183 147.073 30.8805C147.639 31.578 147.891 32.5291 147.891 33.6705C147.891 34.7485 147.576 35.6996 147.011 36.5873C146.445 37.4751 145.628 38.1092 144.559 38.6164C143.491 39.1237 142.359 39.3139 141.04 39.3139C139.594 39.3774 138.337 39.1237 137.206 38.553Z" fill="#E60000"/>
<path d="M153.044 38.4896C151.976 37.9189 151.159 37.0946 150.593 36.0801C150.028 35.0021 149.713 33.7973 149.713 32.4023C149.713 31.0073 149.965 29.7391 150.53 28.7245C151.096 27.71 151.85 26.8857 152.856 26.315C153.862 25.7443 154.993 25.4272 156.313 25.4272C157.633 25.4272 158.764 25.6809 159.77 26.1882C160.775 26.6954 161.53 27.4564 162.095 28.4709C162.661 29.4855 162.975 30.6268 162.975 31.895C162.975 32.0853 162.975 32.2121 162.975 32.4023C162.975 32.5925 162.975 32.7828 162.912 32.973H152.73C152.73 33.0364 152.73 33.0364 152.73 33.0364V33.0998C152.793 33.8607 152.919 34.5582 153.233 35.1289C153.547 35.6996 153.987 36.1435 154.553 36.4605C155.119 36.7776 155.747 36.9678 156.501 36.9678C157.381 36.9678 158.136 36.7776 158.701 36.3337C159.33 35.8898 159.707 35.3191 159.895 34.5582H162.787C162.598 35.446 162.284 36.2703 161.718 36.9678C161.153 37.6653 160.461 38.236 159.644 38.6798C158.764 39.0603 157.821 39.3139 156.753 39.3139C155.307 39.3774 154.05 39.0603 153.044 38.4896ZM154.742 28.1539C154.239 28.4075 153.799 28.788 153.484 29.2952C153.17 29.8025 152.919 30.3098 152.856 30.9439H160.084C159.958 29.9293 159.581 29.105 158.953 28.5977C158.324 28.027 157.444 27.7734 156.439 27.7734C155.81 27.71 155.244 27.8368 154.742 28.1539Z" fill="#E60000"/>
<path d="M168.066 38.4896C166.998 37.9189 166.181 37.0946 165.615 36.0801C165.049 35.0021 164.735 33.7973 164.735 32.4023C164.735 31.0073 164.987 29.7391 165.552 28.7245C166.118 27.71 166.872 26.8857 167.878 26.315C168.883 25.7443 170.015 25.4272 171.335 25.4272C172.655 25.4272 173.786 25.6809 174.792 26.1882C175.797 26.6954 176.552 27.4564 177.117 28.4709C177.683 29.4855 177.997 30.6268 177.997 31.895C177.997 32.0853 177.997 32.2121 177.997 32.4023C177.997 32.5925 177.997 32.7828 177.934 32.973H167.752C167.752 33.0364 167.752 33.0364 167.752 33.0364V33.0998C167.815 33.8607 167.941 34.5582 168.255 35.1289C168.569 35.6996 169.009 36.1435 169.575 36.4605C170.141 36.7776 170.769 36.9678 171.523 36.9678C172.403 36.9678 173.157 36.7776 173.723 36.3337C174.352 35.8898 174.729 35.3191 174.917 34.5582H177.809C177.62 35.446 177.306 36.2703 176.74 36.9678C176.174 37.6653 175.483 38.236 174.666 38.6798C173.786 39.0603 172.843 39.3139 171.775 39.3139C170.329 39.3774 169.135 39.0603 168.066 38.4896ZM169.763 28.1539C169.261 28.4075 168.821 28.788 168.506 29.2952C168.192 29.8025 167.941 30.3098 167.878 30.9439H175.106C174.98 29.9293 174.603 29.105 173.975 28.5977C173.346 28.027 172.466 27.7734 171.46 27.7734C170.832 27.71 170.266 27.8368 169.763 28.1539Z" fill="#E60000"/>
<path d="M29.5953 58.7027C45.3896 58.7027 58.1935 45.7855 58.1935 29.8514C58.1935 13.9172 45.3896 1 29.5953 1C13.801 1 0.997131 13.9172 0.997131 29.8514C0.997131 45.7855 13.801 58.7027 29.5953 58.7027Z" fill="#FF0101"/>
<path d="M41.9145 17.423C44.5527 17.423 46.6913 15.2654 46.6913 12.6039C46.6913 9.94239 44.5527 7.78479 41.9145 7.78479C39.2763 7.78479 37.1377 9.94239 37.1377 12.6039C37.1377 15.2654 39.2763 17.423 41.9145 17.423Z" fill="#020203"/>
<mask id="mask0_48_1" style="mask-type:alpha" maskUnits="userSpaceOnUse" x="0" y="1" width="59" height="58">
<path d="M29.5953 58.7027C45.3896 58.7027 58.1934 45.7855 58.1934 29.8514C58.1934 13.9172 45.3896 1 29.5953 1C13.801 1 0.997116 13.9172 0.997116 29.8514C0.997116 45.7855 13.801 58.7027 29.5953 58.7027Z" fill="#FF0101"/>
</mask>
<g mask="url(#mask0_48_1)">
<path d="M40.5317 30.422C40.846 30.9293 41.4117 31.2463 42.0402 31.2463C42.3545 31.2463 42.6687 31.1829 42.983 30.9927L51.5939 25.7931C52.4738 25.2858 52.7252 24.1445 52.2224 23.3201C51.7196 22.4324 50.5882 22.1788 49.7711 22.686L42.6059 26.9979L39.149 20.2131C38.2062 19.2619 37.1377 18.3108 36.0692 17.4865L25.8241 12.2869C25.1327 11.9698 24.3785 12.0332 23.8128 12.5405L15.2648 20.3399C14.5106 21.0374 14.4477 22.1788 15.1391 22.8763C15.8305 23.6372 16.9618 23.7006 17.6532 23.0031L25.3841 16.028L30.7267 18.7546L21.5501 33.0852L0.62002 58.0686C-0.197071 59.0197 -0.134218 60.5415 0.871432 61.3659C1.81423 62.1902 3.3227 62.1268 4.13979 61.1122L24.4413 37.4605L33.1779 39.4896L27.2069 48.9376C26.5784 50.079 26.9555 51.474 28.0868 52.1081C29.0925 52.6788 30.4124 52.4251 31.1038 51.4106L38.7719 39.1725C39.2118 38.5384 39.2747 37.7141 39.0233 37.0166C38.709 36.3191 38.1433 35.8118 37.3891 35.685L30.6638 34.0998L36.7606 24.4615L40.5317 30.422Z" fill="#020203"/>
</g>
</svg>
