<?xml version='1.0' encoding='utf-8'?>
<svg xmlns="http://www.w3.org/2000/svg" version="1.1" width="600px" height="976px" viewBox="0 0 600 976"> <g id="layer1"> <g style="fill:rgb(0,0,0); fill-opacity:1.0; stroke-linejoin: miter"> <path d="M210.45497,409.9893C210.482,409.9893,210.513,409.999,210.54402,410.0176C210.6477,410.06943,210.71684,410.2077,210.71684,410.2941C210.71684,410.3606,210.68842,410.39154,210.6407,410.39154C210.61398,410.39154,210.58122,410.38184,210.54402,410.36325C210.45761,410.31137,210.3712,410.17313,210.3712,410.0867C210.3712,410.02023,210.40671,409.9893,210.45497,409.9893 Z M210.73405,410.62674C210.76657,410.62674,210.86046,410.7867,211.1316,411.22733L211.4254,411.74576L211.07977,411.331C210.87238,411.10635,210.71684,410.8471,210.71684,410.74344C210.71684,410.67163,210.71684,410.62674,210.73405,410.62674 Z M211.80936,412.35422C211.85591,412.35422,211.92581,412.44742,211.9957,412.62717C212.03587,412.73428,212.03455,412.7999,211.98366,412.7999C211.96887,412.7999,211.9499,412.79437,211.92657,412.7827C211.82288,412.73083,211.75375,412.6099,211.75375,412.50616C211.75375,412.404,211.77531,412.35422,211.80936,412.35422 Z M212.155,413.04553C212.20155,413.04553,212.27145,413.13873,212.34134,413.31845C212.38152,413.42557,212.38019,413.49118,212.32932,413.49118C212.31453,413.49118,212.29556,413.48563,212.27222,413.47397C212.16852,413.42212,212.0994,413.30115,212.0994,413.19748C212.0994,413.0953,212.12097,413.04553,212.155,413.04553 Z M212.51653,413.76358C212.52682,413.76358,212.53778,413.77045,212.54872,413.78506C212.60057,413.83688,212.61786,413.99243,212.56601,414.11343C212.54611,414.16647,212.52621,414.19153,212.50926,414.19153C212.48201,414.19153,212.46231,414.1269,212.46231,414.0097C212.44868,413.85974,212.47807,413.76358,212.51653,413.76358 Z M330.33405,544.04114C330.5165,544.04114,330.7939,544.1657,331.0336,544.3845C331.24097,544.57465,331.34467,544.78204,331.29282,544.8512C331.268,544.8698,331.24542,544.8795,331.22668,544.8795C331.19315,544.8795,331.17184,544.8485,331.17184,544.78204C331.17184,544.67834,330.94717,544.5574,330.65338,544.4882C330.37686,544.4364,330.13492,544.3154,330.13492,544.21173C330.13492,544.0951,330.2139,544.04114,330.33405,544.04114 Z M333.93695,550.174L334.26532,550.8653C334.4554,551.2455,334.66278,551.7639,334.71463,552.02313C334.78375,552.31696,334.76648,552.5071,334.66278,552.5071C334.43814,552.5071,334.14432,551.74664,334.02338,550.8653L333.93695,550.174 Z M249.41267,378.5104C248.74464,378.5104,248.05707,378.56223,247.52734,378.66818C244.19193,379.35944,243.155,379.7742,241.18488,381.20862C239.31842,382.57388,239.09375,382.78128,238.24695,384.06012C237.50381,385.16617,237.41742,385.4081,237.36557,386.44504C237.29645,387.43008,237.3483,387.6375,237.65936,387.9313C237.98773,388.24237,238.02228,388.3806,237.9013,389.29657C237.83218,389.84955,237.7976,391.14572,237.81488,392.18265C237.84946,394.0491,238.03955,394.7231,238.92093,395.9674C239.09375,396.20932,239.07648,396.434,238.81723,397.0907C238.16052,398.76706,238.2988,399.52747,239.37027,399.92493C239.57767,400.01135,239.83688,400.27057,239.92328,400.51254C240.0097,400.7545,240.2862,401.03098,240.51086,401.1174C240.83923,401.2384,240.9602,401.44574,241.04663,401.92966C241.09845,402.29257,241.21942,402.91473,241.32312,403.3122C241.40955,403.7097,241.47867,404.40094,241.47867,404.86758C241.47867,406.47244,242.21304,407.3071,243.57219,407.3071C244.10107,407.3071,244.72458,407.1807,245.43622,406.92413C246.43669,406.5746,247.52121,406.37634,248.33212,406.37634C248.68384,406.37634,248.98409,406.41364,249.20367,406.49207C250.06778,406.78586,251.03555,408.51407,251.31207,410.24225C251.45032,411.12366,251.43304,411.17545,250.93188,411.5902C250.65536,411.83218,250.0505,412.2124,249.61847,412.43704C247.83841,413.37024,246.3176,414.54544,245.19427,415.89346C242.7575,418.81412,242.06625,420.19662,241.21942,423.70486C240.97748,424.7245,240.71826,425.72684,240.66641,425.89966C240.61456,426.07248,240.25165,426.55637,239.85416,426.9539C238.36792,428.47467,238.33334,428.54382,238.45432,429.25235C238.54074,429.78812,238.47162,430.03006,238.03955,430.66953C237.74576,431.10153,237.50381,431.5336,237.50381,431.62C237.50381,431.7237,237.12363,432.41495,236.63971,433.17535C236.17313,433.9185,235.75833,434.60974,235.72379,434.6962C235.71626,434.71875,235.67896,434.72894,235.61938,434.72894C235.2681,434.72894,234.14284,434.37454,233.78821,434.1086C233.70181,434.03946,233.11423,433.83206,232.49207,433.64197C231.8699,433.45187,230.86755,433.08896,230.24542,432.8297C229.62326,432.58777,228.77646,432.25946,228.34439,432.1039C227.91235,431.96564,227.22107,431.56815,226.78903,431.2225C225.0954,429.83994,220.04907,424.448,220.04907,423.9987C220.04907,423.8604,220.25647,422.82352,220.49841,421.6656C220.84404,420.04108,220.91318,419.31528,220.82677,418.46848C220.6885,417.18958,221.06871,415.80704,221.70815,415.23672C221.9328,415.04663,222.1229,414.70096,222.1229,414.49362C222.1229,414.02698,221.51804,413.56036,220.91318,413.56036C220.27374,413.56036,218.9776,414.06155,218.71838,414.38992C218.09622,415.1503,217.94069,415.49594,217.837,416.25635L217.71602,417.06863L217.02475,416.39462C216.38531,415.77246,215.2447,413.75046,214.95091,412.6963C214.79538,412.14328,213.55109,409.93115,212.87708,409.0152C212.53143,408.5659,212.13396,408.23755,211.77104,408.13385C211.5925,408.0803,211.46315,408.0493,211.35545,408.0493C211.15042,408.0493,211.02391,408.16168,210.78598,408.44495C210.56131,408.70416,210.3712,409.11893,210.3712,409.36087C210.3712,409.55667,210.36792,409.66388,210.31416,409.66388C210.24455,409.66388,210.09033,409.48416,209.74905,409.08435C209.27167,408.53467,209.10912,408.39667,208.68365,408.39667C208.60083,408.39667,208.50806,408.40192,208.40106,408.41034C207.74435,408.46222,207.67523,408.51407,207.53696,409.06708C207.39871,409.6201,207.48512,409.86206,208.3665,411.55566C208.90225,412.5926,209.317,413.4567,209.28244,413.50854C209.28094,413.50955,209.27919,413.51004,209.27718,413.51004C209.2096,413.51004,208.8562,412.95135,208.47018,412.22968C207.57213,410.53717,207.32991,410.27716,206.7259,410.27682L206.72383,410.27682C205.44603,410.27783,205.80914,412.54126,207.45056,414.82196C207.72707,415.20218,207.95174,415.58237,207.95174,415.6515C207.95174,415.7206,208.17639,416.13538,208.47018,416.55017C209.23059,417.6735,209.40341,418.2265,209.10962,418.53757C209.03175,418.61172,208.93639,418.6501,208.81924,418.6501C208.39043,418.6501,207.66986,418.136,206.44821,416.9822C205.45998,416.05573,205.16156,415.8329,204.77638,415.8329C204.73047,415.8329,204.6833,415.83606,204.6336,415.84158C203.9769,415.89346,203.6831,416.48102,203.8732,417.25873C204.0633,418.01913,206.01616,419.7992,207.38144,420.47318C208.29736,420.9225,208.67758,421.21625,208.91953,421.6656C209.10962,422.01123,209.36885,422.40875,209.50711,422.54697C209.93915,422.9963,210.73413,424.10236,210.63043,424.10236C210.57858,424.10236,210.68228,424.27518,210.88966,424.48254C211.07977,424.68994,211.23529,424.9146,211.23529,424.98376C211.23529,425.05286,211.40811,425.31207,211.63278,425.5713C212.35896,426.43655,212.71219,426.83215,212.77888,426.83215C212.7868,426.83215,212.79068,426.8266,212.79068,426.8156C212.79068,426.81332,212.79176,426.81223,212.7939,426.81223C212.88866,426.81223,215.04987,429.026,215.60762,429.719C216.1952,430.4621,217.87155,432.93344,218.42459,433.9012C218.6838,434.36783,219.53062,435.47388,220.30832,436.37253C221.06871,437.27118,221.8291,438.1871,221.98465,438.41177C222.1229,438.63647,222.9006,439.48328,223.69556,440.2955C224.24437,440.86816,224.72728,441.41614,224.97942,441.74606L224.98166,441.74606L227.13324,443.9427L227.1355,443.9427C227.56787,444.28864,228.4658,445.083,229.1221,445.70477C229.79608,446.3269,231.00583,447.2947,231.85263,447.84772C232.68216,448.40073,233.35617,448.90192,233.35617,448.97104C233.35617,449.04016,233.64996,449.26483,234.03015,449.47223C234.45172,449.70898,234.81346,449.83963,235.18954,449.83963C235.93892,449.83963,236.74521,449.32092,238.1951,448.08966C238.78268,447.5885,239.54309,446.96634,239.87146,446.7244C240.18253,446.46515,240.66641,445.964,240.92563,445.5838C241.18488,445.22086,242.42917,443.94202,243.70804,442.74957C244.98691,441.5744,246.83606,439.69064,247.83841,438.58463C248.82349,437.47858,249.77399,436.51077,249.94681,436.45895C250.25787,436.35522,251.5886,434.73074,251.77869,434.21228C251.84296,434.05518,251.90724,433.9748,251.97762,433.9748C252.07753,433.9748,252.18974,434.13687,252.3317,434.4715C252.46997,434.7653,252.91928,435.47388,253.35135,436.0442C253.76611,436.6145,254.5438,437.96246,255.04498,439.01663C255.56345,440.07086,256.04733,440.96954,256.11646,441.02136C256.34113,441.19418,256.8596,442.19653,256.8596,442.45575C256.8596,442.59402,257.15338,443.28528,257.51627,443.99387C257.8792,444.7024,258.31125,445.5838,258.4668,445.964C258.63962,446.3442,258.96796,446.96634,259.19263,447.34656C259.43457,447.72675,259.8666,448.50443,260.1604,449.07474C260.4542,449.64502,260.9554,450.45728,261.26645,450.88934C261.9923,451.87442,262.2861,452.89404,262.73544,455.91837C263.18475,458.8563,263.1502,459.3748,262.56262,459.54758C262.32065,459.61673,261.38745,459.9105,260.48877,460.187C259.59012,460.4808,258.34583,460.7746,257.72366,460.84372C256.51392,460.96472,253.36862,461.94977,251.41577,462.79657C250.75906,463.0731,249.86038,463.41873,249.42834,463.5397C248.9548,463.6805,248.76561,463.7739,248.71335,463.9322L248.71086,463.9322Q238.65112,467.6721,234.62729,470.48886Q230.10645,473.4281,230.30644,477.7678Q230.44896,481.30362,233.17839,485.76367Q240.83755,497.60794,250.03877,508.7816Q251.17644,510.3977,253.6204,516.153L253.61787,516.153C253.56656,516.21954,253.5256,516.25665,253.48508,516.25665C253.40009,516.25665,253.31697,516.0935,253.14395,515.69653C252.76376,514.84973,251.07013,513.10425,250.63809,513.10425C250.5344,513.10425,250.46527,513.0178,250.46527,512.93146C250.46527,512.82776,250.27515,512.75867,250.0332,512.75867C249.70486,512.75867,249.60117,512.84503,249.60117,513.1561C249.60117,513.5017,250.11963,514.1412,250.39612,514.1412C250.55167,514.1412,251.15652,514.84973,251.15652,515.0226C251.15652,515.0917,251.26022,515.2645,251.3812,515.3855C251.72684,515.73114,252.66006,517.45935,252.76376,517.9432C252.91928,518.6172,252.36627,519.5677,251.79599,519.63684C251.53674,519.6714,251.36392,519.7751,251.41577,519.8615C251.4849,519.9479,251.26022,520.017,250.91461,520.017C250.58624,520.017,250.29245,519.9652,250.25787,519.8788C250.17148,519.68866,248.11493,519.032,246.85333,518.8073C246.4183,518.7296,246.1439,518.6868,245.95164,518.6868C245.71622,518.6868,245.60397,518.751,245.4708,518.8937C245.32663,519.0379,245.2864,519.1375,245.35008,519.1375C245.3551,519.1375,245.36078,519.1369,245.3671,519.1356C245.43965,519.12524,245.50322,519.1204,245.5567,519.1204C245.7708,519.1204,245.82338,519.1979,245.64362,519.3085C245.40167,519.464,245.38437,519.464,247.61374,520.10345C248.18405,520.27625,248.979,520.6046,249.39377,520.84656C249.83441,521.1003,250.13063,521.1992,250.48169,521.1992C250.58499,521.1992,250.69304,521.1906,250.81091,521.1749L251.4849,521.0885L251.22568,521.53784C251.08743,521.79706,250.74176,522.3501,250.46527,522.7821C250.15417,523.2833,249.96408,523.80176,249.96408,524.2511C249.94681,524.6313,249.79126,525.2534,249.61847,525.65094C249.2728,526.39404,247.85568,527.74207,247.23355,527.8976C247.00888,527.96674,246.83606,528.07043,246.83606,528.15686C246.83606,528.2432,246.71509,528.3124,246.57684,528.3124C246.43857,528.3124,246.3176,528.3815,246.3176,528.48517C246.3176,528.5716,246.16208,528.658,245.97195,528.658C245.78186,528.658,245.62631,528.7271,245.62631,528.8308C245.62631,528.91724,245.4708,529.00366,245.2807,529.00366C245.09058,529.00366,244.93506,529.07275,244.93506,529.1592C244.93506,529.33203,243.155,529.95416,242.16992,530.12695C240.99475,530.33435,240.33807,531.1984,240.51086,532.3218C240.63187,533.0476,241.27127,534.0154,241.65149,534.0154C241.73788,534.0154,241.82431,534.08453,241.82431,534.1536C241.82431,534.49176,244.93915,534.76697,247.1093,534.76697C248.15587,534.76697,248.98274,534.70294,249.13455,534.55115C249.23825,534.44745,249.65302,534.361,250.06778,534.361C250.48254,534.361,250.81091,534.27466,250.81091,534.18823C250.81091,534.08453,251.12198,534.0154,251.4849,534.0154C251.89966,534.0154,252.19345,533.92896,252.2453,533.77344C252.29715,533.6352,252.90201,533.4105,253.59329,533.2377C254.28458,533.08215,255.32147,532.7365,255.89178,532.46C256.47937,532.1835,257.2225,531.8897,257.55084,531.8379C257.8792,531.76874,258.24213,531.66504,258.32855,531.59595C258.43222,531.5268,258.9334,531.3713,259.45187,531.2503C259.97034,531.12933,260.67886,530.90466,261.00723,530.7318C261.3356,530.5763,261.95776,530.33435,262.3898,530.2134C262.82184,530.07513,263.20203,529.91956,263.25388,529.86774C263.35757,529.7295,265.17218,529.0555,266.1918,528.7444C266.62387,528.6234,267.3497,528.3642,267.799,528.15686C268.26566,527.96674,268.74954,527.7939,268.8878,527.7939C269.02603,527.7939,269.12973,527.7075,269.12973,527.6211C269.12973,527.5174,269.28528,527.44824,269.49268,527.44824C269.68277,527.44824,269.78647,527.37915,269.7346,527.27545C269.68277,527.189,269.7519,527.10266,269.89014,527.10266C270.0457,527.10266,270.16666,527.01624,270.16666,526.9298C270.16666,526.8261,270.28763,526.75696,270.4259,526.75696C270.56412,526.75696,270.68512,526.6706,270.68512,526.58417C270.68512,526.48047,270.7715,526.4114,270.8752,526.4114C271.25543,526.4114,272.24048,525.1498,272.24048,524.64856C272.24048,524.49304,272.1195,524.2511,271.98126,524.11285C271.34183,523.4561,269.99384,521.52057,269.31982,520.27625C269.09418,519.86255,268.84296,519.4182,268.62738,519.05444L268.63007,519.05444L265.7236,515.69385L265.72626,515.69385C265.17426,515.6765,265.07974,515.5469,264.41177,514.5905C263.97974,513.98566,263.58224,513.31165,263.51312,513.1216C263.46127,512.9142,263.3403,512.75867,263.25388,512.75867C263.16748,512.75867,263.04648,512.6031,262.99466,512.41296C262.9428,512.2229,262.78726,511.96368,262.6836,511.86C262.32065,511.47977,261.40472,509.94165,261.11093,509.2331C260.9554,508.8529,260.55792,508.14435,260.22955,507.6432C259.90118,507.142,259.53827,506.5544,259.45187,506.34705C259.1235,505.62122,258.70874,504.89536,258.58777,504.80896C258.43222,504.70526,255.80536,499.60706,255.4943,498.8294C255.3906,498.5529,255.14868,498.06897,254.95856,497.75793C254.59564,497.17035,253.92163,494.82,253.92163,494.18054C253.92163,493.73123,253.28223,491.2426,253.05756,490.84515C252.97113,490.6896,252.78104,490.2403,252.62549,489.86008C252.02063,488.3911,251.62314,487.66528,250.30972,485.626C249.63574,484.58908,249.61847,484.5718,248.979,483.8114C248.73706,483.5176,248.30502,482.99915,248.0285,482.6535L247.60612,482.13257L247.60861,482.13257Q249.09831,482.54877,250.23578,482.7608Q253.13611,483.33975,256.70935,483.33975Q256.83206,483.33975,256.9556,483.33908Q261.58554,483.31757,267.52936,482.686L267.5267,482.686C268.18112,482.67538,268.6462,482.62485,268.75812,482.55084L268.75543,482.55084Q270.47598,482.35443,272.30182,482.10913Q272.4564,482.08762,272.6228,482.06372L272.62552,482.06372Q273.63303,484.18735,275.9323,487.32437Q277.67194,489.89322,290.88657,505.2668Q290.9467,505.31424,291.04614,505.4346L291.04324,505.4346C291.27762,505.7323,291.42343,505.9329,291.42343,505.96683C291.42343,506.0189,291.52383,506.15253,291.67545,506.31482L291.67255,506.31482Q292.697,507.86136,294.91693,511.62494Q295.70715,512.80225,296.51984,513.6503Q297.27554,514.4591,298.23386,515.0288Q298.68597,515.3784,301.23236,516.1833Q301.88156,516.4872,302.8355,517.2259Q311.16534,524.49493,321.92676,532.93555Q326.73962,536.6872,331.2163,542.8994L331.2163,542.8994C330.9078,542.78174,330.6688,542.72217,330.45078,542.72217C330.1878,542.72217,329.95535,542.80884,329.6683,542.98474C328.6141,543.6414,328.7351,544.7302,329.94482,545.4906C330.3596,545.7671,330.7398,546.1819,330.9299,546.6312C331.10272,547.0114,331.34467,547.3225,331.4829,547.3225C331.75943,547.3225,332.55438,548.152,332.55438,548.4458C332.55438,548.5322,332.6408,549.379,332.7272,550.295C332.90002,552.0923,333.29752,553.1465,333.9715,553.6131C334.14148,553.729,334.37708,553.78613,334.61655,553.78613C334.91272,553.78613,335.21478,553.69867,335.4059,553.5267C335.51193,553.42065,335.60217,553.3709,335.66937,553.3709C335.78842,553.3709,335.8351,553.52704,335.76883,553.8032C335.64786,554.2698,336.0108,555.2894,336.44284,555.7215C336.87488,556.15356,336.944,556.81024,336.73663,558.53845C336.59836,559.66174,336.40826,560.43945,336.11447,561.02704C335.63058,561.943,335.14667,563.77484,335.14667,564.65625C335.14667,565.22656,335.4923,565.8833,336.0108,566.28076C336.14905,566.40173,336.71936,566.50543,337.25507,566.50543C338.2056,566.50543,338.25742,566.48816,339.4153,565.43396C340.05475,564.8291,340.7806,564.18964,341.02252,563.9995C341.67926,563.4811,342.3014,562.5651,342.92355,561.23444C343.23462,560.5604,343.54572,560.0074,343.6321,559.97284C343.7185,559.9383,343.78763,559.7827,343.78763,559.6272C343.78763,559.4717,343.9259,559.09143,344.09872,558.81494C344.27155,558.5212,344.54807,557.7953,344.7209,557.1732C344.91098,556.551,345.22205,555.65234,345.44672,555.1857C345.67136,554.70184,345.9306,553.8205,346.0343,553.1983C346.15527,552.5762,346.34537,551.7294,346.4836,551.2973C346.6046,550.8653,346.7947,549.932,346.8811,549.2235C346.9675,548.5149,347.2613,547.3052,347.50327,546.5448C347.76248,545.78436,348.05627,544.9203,348.14267,544.6438C349.14502,541.61945,349.62894,538.4223,349.31787,536.6423L349.12775,535.4671L347.33044,535.4325C346.27625,535.39795,345.23932,535.277,344.80728,535.13873C344.70267,535.0995,344.55185,535.06024,344.3687,535.0224L344.37216,535.0224Q344.3136,535.0183,344.24274,535.00977L343.8314,534.9391L343.5363,534.92706Q343.44046,534.9425,343.2402,534.9425Q343.21298,534.9425,343.18384,534.9422L343.04892,534.9601Q343.028,534.9583,342.99994,534.9583Q342.8853,534.9583,342.65085,534.98773L342.03592,534.9975L341.88498,535.01044Q341.51663,534.9966,341.45377,534.98157L341.3585,534.96423L341.20633,534.91675Q340.95602,534.8699,340.92725,534.8542Q340.72714,534.789,340.68494,534.7216L337.68082,534.09686Q337.64282,534.0574,337.61624,534.01605L337.6196,534.01605C337.60367,534.01587,337.58585,534.0154,337.56616,534.0154C337.4188,534.0154,332.43744,529.07666,329.1508,525.72797L329.1475,525.72797Q322.18668,515.6227,318.45316,512.1235Q314.84354,508.5958,310.04547,506.1876L310.0424,506.1876C309.88257,506.07355,309.67084,505.93976,309.48303,505.84586C309.34393,505.7763,309.17715,505.6307,309.00284,505.4338L308.99976,505.4338Q305.65067,497.6658,298.9353,486.17816L298.9323,486.17816C298.80927,485.82578,298.59543,485.34946,298.28436,484.72736C297.78317,483.75955,297.12646,482.58438,296.81537,482.13507C296.5043,481.68573,296.26236,481.2537,296.26236,481.16727C296.26236,481.06357,296.2105,480.9599,296.1414,480.92532C296.05496,480.89075,295.72662,480.4414,295.39825,479.92297C295.18982,479.59546,295.05322,479.37872,294.96582,479.16534L294.96286,479.16534Q295.45905,476.84915,295.71045,475.53085Q296.21036,472.93323,296.4178,471.0942Q296.46817,470.67883,296.5051,470.27655L296.50214,470.27655C296.50873,470.22598,296.51523,470.17517,296.5216,470.1241C296.53537,470.01776,296.54495,469.89362,296.55072,469.7544L296.54776,469.7544Q296.725,467.2708,296.36676,465.3071Q296.1734,464.20016,295.76068,463.08203L295.75772,463.08203C295.69547,462.84875,295.6328,462.65213,295.57108,462.50278C295.5415,462.43378,295.5035,462.37323,295.45825,462.3219L295.45532,462.3219Q295.07806,461.45306,294.56927,460.57755Q294.3375,459.89767,289.12152,452.68176Q288.04587,451.0571,287.22455,449.4303Q285.67282,446.43353,284.43158,441.59683Q283.6608,438.45013,283.14963,435.9299L283.1468,435.9299C282.94235,434.7829,282.79492,433.8443,282.78244,433.60742C282.78244,433.27908,282.66147,432.53595,282.52322,431.96564C282.46152,431.72253,282.40466,431.4772,282.35245,431.22675L282.34964,431.22675Q282.25638,430.48322,282.2053,429.8414Q281.79346,426.8034,282.2586,410.79398L282.2558,410.79398L282.60962,410.74344C282.938,410.6916,284.18228,410.53604,285.37473,410.3978C286.5672,410.24225,287.77695,410.03488,288.05344,409.91388C288.34723,409.79294,289.436,409.60284,290.4729,409.48184C293.91202,409.08435,295.6575,408.6523,297.3511,407.7537C297.88266,407.47015,298.13165,407.3643,298.67746,407.3643C298.9302,407.3643,299.2466,407.387,299.68417,407.42526C302.29376,407.6154,303.14056,407.82278,305.2317,408.72144C307.16727,409.55096,307.82397,409.74106,309.8978,410.12128C310.41626,410.2077,310.90015,410.32867,310.96927,410.36325C311.0384,410.41507,312.40366,410.53604,314.0109,410.62247C317.17346,410.81256,318.4869,410.98535,319.93857,411.41742C321.66678,411.9186,323.30856,412.54074,323.42953,412.73083C323.48138,412.8518,324.10355,413.21475,324.7948,413.54312C325.97,414.13068,326.05637,414.2171,326.3156,415.02933C326.9032,416.8094,328.47586,418.6758,330.04852,419.45352C330.70523,419.78186,331.3274,420.26575,331.7767,420.78424C332.68695,421.89676,333.1697,422.23654,333.78632,422.23654C333.80188,422.23654,333.81754,422.23633,333.83328,422.2359C334.52454,422.21863,334.80106,421.8039,334.80106,420.78424C334.80106,419.85098,334.29987,418.88324,333.4876,418.2438C333.22952,418.05453,333.09134,417.88232,333.1754,417.88083L333.17877,417.88083C333.57785,417.88437,334.61307,418.83398,335.76883,420.2485C336.69226,421.38852,337.187,421.86676,337.6103,421.86676C337.82867,421.86676,338.02805,421.73947,338.25742,421.51007C338.67218,421.0953,338.68948,420.76694,338.34384,420.40405C338.1883,420.26575,338.01547,419.7992,337.92908,419.38437C337.82538,418.84866,337.6007,418.39932,337.1514,417.94998C336.49948,417.28662,336.2033,416.8579,336.328,416.8542L336.33136,416.8542C336.3977,416.85605,336.57037,416.96558,336.8576,417.20685C337.25507,417.53522,337.82538,417.9673,338.11917,418.19193C338.41296,418.39932,338.93143,418.81412,339.25977,419.09058C339.66434,419.43448,340.1636,419.61856,340.54282,419.61856C340.81155,419.61856,341.02,419.5261,341.09167,419.33255C341.13104,419.2266,341.1598,419.11743,341.17856,419.009L341.17514,419.009Q341.19116,419.00757,341.2068,419.00583Q341.31808,419.00174,341.3325,418.91666Q341.34167,418.82324,341.3402,418.70572Q341.3102,418.4064,341.3143,418.14072Q341.2707,417.85016,341.1268,417.64362L340.7572,417.08994L340.21985,416.628L339.61337,415.99677Q339.53302,415.9148,339.4452,415.84033L339.10748,415.55972Q338.77026,415.32852,338.5179,415.1179L338.5213,415.1179Q338.8275,415.21744,339.1764,415.30246L339.17297,415.30246C339.271,415.3775,339.36935,415.45947,339.46716,415.54782C339.84433,415.88303,340.1516,416.0468,340.4391,416.0468C340.62582,416.0468,340.80423,415.9777,340.98798,415.84158C341.3682,415.54782,341.3682,415.49594,341.12622,415.02933C341.0637,414.9043,341.01178,414.77924,340.97684,414.67337L340.97345,414.67337Q341.00076,414.31104,340.9737,414.18912Q340.96393,414.10272,340.93362,414.02423L340.76654,413.69107Q340.51752,413.10165,340.50055,412.97556Q340.3755,412.80508,340.09665,412.49673L339.4779,411.65207L339.32346,411.46686Q339.26483,411.40024,339.04166,411.24182L338.17484,410.62302L338.17145,410.62302C338.1192,410.1955,337.72385,409.5855,337.4106,409.5855C337.25507,409.5855,336.52924,409.39542,335.83795,409.1535C335.14667,408.91153,334.42087,408.72144,334.23074,408.72144C334.04065,408.72144,333.74683,408.61777,333.60858,408.49677C333.28226,408.21704,331.58633,407.64383,330.83322,407.5312L330.8299,407.5312Q330.82156,407.52612,330.81357,407.52148Q330.74884,407.4806,330.53125,407.38693L330.3937,407.3148Q330.22336,407.25378,329.95233,407.243L329.94904,407.243C329.92856,407.22382,329.90976,407.2039,329.89297,407.18338C329.73746,407.0105,329.09802,406.61307,328.49316,406.30197C327.8,405.94882,327.45325,405.81345,327.0784,405.81345C326.95792,405.81345,326.83453,405.82742,326.69583,405.85266C326.6118,405.86526,326.52185,405.87173,326.4251,405.87173C325.72626,405.87173,324.67203,405.53387,322.91107,404.7293C322.51358,404.5565,322.09882,404.40094,321.99515,404.40094C321.89145,404.40094,321.14832,404.07263,320.3188,403.6924C317.70923,402.44812,317.45,402.34442,316.58588,402.15433C316.1193,402.0506,315.58353,401.8778,315.39343,401.7741C315.20334,401.6704,314.65033,401.49762,314.1664,401.37662C313.68256,401.25565,312.74933,400.94458,312.07532,400.68533C311.4186,400.42612,310.43353,400.09778,309.91507,399.9595C309.3966,399.82126,308.87814,399.63113,308.79175,399.56204C308.4461,399.26825,305.85382,398.5424,304.81693,398.4387C304.2466,398.36957,303.41708,398.2486,302.98502,398.1622C302.7085,398.10168,302.40176,398.07144,302.05396,398.07144C301.70618,398.07144,301.31732,398.10168,300.87665,398.1622C300.52145,398.21002,300.09332,398.23285,299.61288,398.23285C297.6622,398.23285,294.84857,397.85638,292.54675,397.24625C291.4407,396.95245,289.59155,396.6068,288.91754,396.58954C288.83408,396.58713,288.7384,396.58597,288.63248,396.58597C287.22543,396.58597,284.01138,396.78928,283.57742,396.9179C283.44482,396.95767,283.23196,396.97598,282.9741,396.97598C282.2238,396.97598,281.0925,396.82104,280.4494,396.58954C279.63736,396.3019,276.8545,395.91498,275.68378,395.91498C275.6586,395.91498,275.63412,395.91516,275.61047,395.91553C272.55157,395.95007,271.61835,396.12296,270.0284,396.98703C268.8014,397.64374,266.72754,398.3004,265.50055,398.4387C265.17218,398.4733,264.65372,398.55963,264.35992,398.6115C264.23343,398.63815,264.1172,398.65195,264.01813,398.65195C263.86005,398.65195,263.7457,398.6168,263.70322,398.5424C263.62805,398.41708,263.2298,398.35638,262.774,398.35638C262.28683,398.35638,261.7339,398.42572,261.43927,398.55963C261.2856,398.62646,261.17844,398.6649,261.0898,398.6649C260.94916,398.6649,260.8552,398.5682,260.69617,398.335C260.05673,397.4536,259.6247,396.17474,259.7802,395.62173C259.8839,395.2761,259.83206,394.6194,259.6074,393.5825C259.43457,392.7011,259.29633,391.30127,259.27902,390.3162C259.27902,389.3657,259.15805,388.08682,259.00253,387.46466C258.70874,386.16852,257.29163,383.12692,256.41025,381.83078C255.68439,380.79385,253.50687,379.18665,252.50455,378.96198C252.1416,378.89282,251.51947,378.75458,251.12198,378.6509C250.67395,378.55792,250.05228,378.5104,249.41267,378.5104 Z"/> </g> </g> </svg>